<svg xmlns="http://www.w3.org/2000/svg" xmlns:xlink="http://www.w3.org/1999/xlink"><symbol id="cart" viewBox="0 0 17.981 17.958"><path d="M4.646 10.681h9.427l2.908-6.129H4.646z"/><path d="M17.825 4.017a1 1 0 00-.844-.466H5.398L4.58.722A1 1 0 003.619 0H0v2h2.867l.779 2.694v5.987a1 1 0 001 1h9.427a1 1 0 00.9-.571l2.908-6.13a1 1 0 00-.056-.963zM13.44 9.681H5.646v-4.13H15.4zM5.436 12.584a2.687 2.687 0 102.686 2.687 2.69 2.69 0 00-2.686-2.687zm0 3.374a.687.687 0 11.686-.687.688.688 0 01-.686.687zM12.727 12.584a2.687 2.687 0 102.686 2.687 2.69 2.69 0 00-2.686-2.687zm0 3.374a.687.687 0 11.686-.687.688.688 0 01-.686.687z"/></symbol><symbol id="chart" viewBox="0 0 18 18"><path d="M16 0h2v18h-2z" data-name="&#x41F;&#x440;&#x44F;&#x43C;&#x43E;&#x443;&#x433;&#x43E;&#x43B;&#x44C;&#x43D;&#x438;&#x43A; 619"/><path d="M5.332 1.6h2V18h-2z" data-name="&#x41F;&#x440;&#x44F;&#x43C;&#x43E;&#x443;&#x433;&#x43E;&#x43B;&#x44C;&#x43D;&#x438;&#x43A; 620"/><path d="M0 5.6h2V18H0z" data-name="&#x41F;&#x440;&#x44F;&#x43C;&#x43E;&#x443;&#x433;&#x43E;&#x43B;&#x44C;&#x43D;&#x438;&#x43A; 621"/><path d="M10.668 8.6h2V18h-2z" data-name="&#x41F;&#x440;&#x44F;&#x43C;&#x43E;&#x443;&#x433;&#x43E;&#x43B;&#x44C;&#x43D;&#x438;&#x43A; 622"/></symbol><symbol id="complete" viewBox="0 0 12 8.933"><g data-name="check mark"><path d="M5.063 8.933a1 1 0 01-.707-.293L.297 4.576a1 1 0 111.414-1.413l3.3 3.3L10.248.35a1 1 0 011.519 1.3l-5.94 6.934a1 1 0 01-.722.349z" data-name="&#x41A;&#x43E;&#x43D;&#x442;&#x443;&#x440; 1484"/></g></symbol><symbol id="heart" viewBox="0 0 20.019 17.899"><path d="M10.011 17.899a1.562 1.562 0 01-1.03-.386c-.718-.628-1.412-1.22-2.033-1.751l-.14-.12c-3.954-3.371-6.8-5.8-6.8-9.452l-.009-.178A5.9 5.9 0 015.771 0h.019a5.291 5.291 0 013.282 1.137 7.138 7.138 0 01.937.9 7.017 7.017 0 01.933-.9 5.282 5.282 0 013.27-1.14h.036c.083 0 .166.005.249.011a5.893 5.893 0 015.509 6.241c0 3.6-2.85 6.027-6.8 9.391l-.287.246c-.582.5-1.224 1.045-1.886 1.624a1.557 1.557 0 01-1.022.389z" data-name="&#x41A;&#x43E;&#x43D;&#x442;&#x443;&#x440; 1433"/></symbol><symbol id="minus" viewBox="0 0 14 2"><path d="M0 0h14v2H0z"/></symbol><symbol id="plus" viewBox="0 0 14 14"><path d="M14 6H8V0H6v6H0v2h6v6h2V8h6z"/></symbol></svg>