<svg xmlns="http://www.w3.org/2000/svg" width="17.981" height="17.958" viewBox="0 0 17.981 17.958"><defs><style>.a{fill:#06ab6a;}.b{fill:#1a1a1a;}</style></defs><g transform="translate(-502.355 -207.448)"><path class="a" d="M818.458-1.66h9.427l2.908-6.129H818.458Z" transform="translate(-311.457 219.789)"/><path class="b" d="M831.637-8.324a1,1,0,0,0-.844-.466H819.21l-.818-2.829a1,1,0,0,0-.961-.722h-3.619v2h2.867l.779,2.694V-1.66a1,1,0,0,0,1,1h9.427a1,1,0,0,0,.9-.571l2.908-6.13A1,1,0,0,0,831.637-8.324ZM827.252-2.66h-7.794V-6.79h9.754Z" transform="translate(-311.457 219.789)"/><path class="b" d="M819.248.243a2.687,2.687,0,1,0,2.686,2.687A2.69,2.69,0,0,0,819.248.243Zm0,3.374a.687.687,0,1,1,.686-.687A.688.688,0,0,1,819.248,3.617Z" transform="translate(-311.457 219.789)"/><path class="b" d="M826.539.243a2.687,2.687,0,1,0,2.686,2.687A2.69,2.69,0,0,0,826.539.243Zm0,3.374a.687.687,0,1,1,.686-.687A.688.688,0,0,1,826.539,3.617Z" transform="translate(-311.457 219.789)"/></g></svg>