<svg id="favorites.svg" xmlns="http://www.w3.org/2000/svg" width="20.019" height="17.899" viewBox="0 0 20.019 17.899">
  <path id="Контур_1433" data-name="Контур 1433" d="M850.371-27.259a1.562,1.562,0,0,1-1.03-.386c-.718-.628-1.412-1.22-2.033-1.751l-.14-.12c-3.954-3.371-6.8-5.8-6.8-9.452l-.009-.178a5.9,5.9,0,0,1,5.772-6.012h.019a5.291,5.291,0,0,1,3.282,1.137,7.138,7.138,0,0,1,.937.9,7.017,7.017,0,0,1,.933-.9,5.282,5.282,0,0,1,3.27-1.14h.036c.083,0,.166.005.249.011a5.893,5.893,0,0,1,5.509,6.241c0,3.6-2.85,6.027-6.8,9.391l-.287.246c-.582.5-1.224,1.045-1.886,1.624A1.557,1.557,0,0,1,850.371-27.259Z" transform="translate(-840.36 45.158)" fill="#fb5109"/>
</svg>
